<svg id="Capa_1" enable-background="new 0 0 64 64" height="512" viewBox="0 0 64 64" width="512" xmlns="http://www.w3.org/2000/svg"><path d="m62 17h-60c-.552 0-1 .448-1 1v4c0 .552.448 1 1 1v26c0 .552.448 1 1 1h3c.552 0 1-.448 1-1v-26h33v26c0 .552.448 1 1 1h20c.552 0 1-.448 1-1v-26c.552 0 1-.448 1-1v-4c0-.552-.448-1-1-1zm-59 2h58v2h-58zm2 29h-1v-25h1zm55-9h-18v-7h18zm0 9h-18v-7h18zm0-18h-18v-7h18z"/><path d="m48 27h6c.552 0 1-.448 1-1s-.448-1-1-1h-6c-.552 0-1 .448-1 1s.448 1 1 1z"/><path d="m48 36h6c.552 0 1-.448 1-1s-.448-1-1-1h-6c-.552 0-1 .448-1 1s.448 1 1 1z"/><path d="m48 45h6c.552 0 1-.448 1-1s-.448-1-1-1h-6c-.552 0-1 .448-1 1s.448 1 1 1z"/><circle cx="57" cy="35.003" r=".997"/></svg>